# xmcd
#
# Track frame offsets:
#	150
#	14062
#	31455
#	43812
#	61055
#	73072
#	85730
#	98657
#	114470
#	126879
#	137030
#
# Disc length: 2008 seconds
#
# Revision: 3
# Processed by: cddbd v1.5.2PL0 Copyright (c) Steve Scherf et al.
# Submitted via: audiograbber 1.83.01
#
DISCID=9607d60b
DTITLE=Vern Gosdin - There Is A Season
DYEAR=1997
DGENRE=Country
TTITLE0=Turn, Turn, Turn (To Everything There Is A Season)
TTITLE1=Love Me Right To The End (Feat. Emmylou Harris)
TTITLE2=How Can I Believe You (When You'll Be Leavin' Me)
TTITLE3=Slow Healing Heart
TTITLE4=I Can Tell By The Way You Dance (You're Gonna Love Me Tonight)
TTITLE5=What Would Your Memories Do
TTITLE6=Slow Burnin' Memory
TTITLE7=Dead From The Heart On Down
TTITLE8=Stone Cold Heart
TTITLE9=I've Got A Heart Full Of You
TTITLE10=You Never Cross My Mind [Bonus Track]
EXTD=
EXTT0=
EXTT1=
EXTT2=
EXTT3=
EXTT4=
EXTT5=
EXTT6=
EXTT7=
EXTT8=
EXTT9=
EXTT10=
PLAYORDER=
